<?xml version="1.0" encoding="utf-8"?>
<!-- Generator: Adobe Illustrator 21.0.2, SVG Export Plug-In . SVG Version: 6.00 Build 0)  -->
<svg version="1.1" id="Layer_1" xmlns="http://www.w3.org/2000/svg" xmlns:xlink="http://www.w3.org/1999/xlink" x="0px" y="0px"
	 viewBox="0 0 612 576" style="enable-background:new 0 0 612 576;" xml:space="preserve">
<style type="text/css">
	.st0{fill:#931A29;}
	.st1{fill:#DB1F30;stroke:#010101;stroke-miterlimit:10;}
	.st2{fill:#DB1F30;}
	.st3{fill:#2D2E2D;stroke:#010101;stroke-width:2;stroke-miterlimit:10;}
	.st4{fill:#232323;stroke:#010101;stroke-width:2;stroke-miterlimit:10;}
	.st5{fill:#010101;}
	.st6{fill:#010101;stroke:#010101;stroke-miterlimit:10;}
	.st7{fill:#53A4D9;stroke:#010101;stroke-width:2;stroke-miterlimit:10;}
	.st8{fill:#1E6C9F;}
	.st9{fill:#53A4D9;}
	.st10{fill:#A6D7F4;}
	.st11{fill:none;stroke:#010101;stroke-width:2;stroke-miterlimit:10;}
	.st12{fill:#DB1F30;stroke:#010101;stroke-width:2;stroke-miterlimit:10;}
	.st13{fill:#232323;}
</style>
<g id="Layer_5">
	<g>
		<path class="st0" d="M286.6,568.3H31.1c-13,0-23.6-10.5-23.6-23.6V40.6c0-13,10.5-23.6,23.6-23.6h255.4c13,0,23.6,10.5,23.6,23.6
			v504.1C310.1,557.7,299.6,568.3,286.6,568.3z"/>
		<path class="st1" d="M279,558.9H23.6c-13,0-23.6-10.5-23.6-23.6v-504c0-13,10.5-23.6,23.6-23.6H279c13,0,23.6,10.5,23.6,23.6
			v504.1C302.5,548.4,292,558.9,279,558.9z"/>
		<rect x="51.2" y="56.1" class="st2" width="225.2" height="140.1"/>
		<path class="st3" d="M224.3,213.7H79.6c-18.1,0-32.9-14.8-32.9-32.9V65.1c0-18.1,14.8-32.9,32.9-32.9h144.7
			c18.1,0,32.9,14.8,32.9,32.9v115.7C257.1,199,242.4,213.7,224.3,213.7z"/>
		<path class="st4" d="M209.6,195.7H91.7c-18.5,0-33.4-14.9-33.4-33.4V82.9c0-18.5,14.9-33.4,33.4-33.4h117.9
			c18.5,0,33.4,14.9,33.4,33.4v79.4C243,180.6,227.9,195.7,209.6,195.7z"/>
		<rect x="7.4" y="153.7" class="st3" width="28.8" height="60.1"/>
		<rect x="263.8" y="157" class="st3" width="28.8" height="60.1"/>
		<g>
			<rect x="32.7" y="329.7" class="st5" width="91.7" height="32.9"/>
			<rect x="62.8" y="299.3" class="st5" width="33.8" height="92.8"/>
		</g>
		<path class="st5" d="M172.1,334.9h-14.9c-4.1,0-7.6-3.3-7.6-7.6l0,0c0-4.1,3.3-7.6,7.6-7.6h14.9c4.1,0,7.6,3.3,7.6,7.6l0,0
			C179.6,331.4,176.3,334.9,172.1,334.9z"/>
		<path class="st3" d="M171.3,333.3h-14.9c-4.1,0-7.6-3.3-7.6-7.6l0,0c0-4.1,3.3-7.6,7.6-7.6h14.9c4.1,0,7.6,3.3,7.6,7.6l0,0
			C178.9,329.9,175.5,333.3,171.3,333.3z"/>
		<path class="st5" d="M172.2,379.4h-14.9c-4.1,0-7.6-3.3-7.6-7.6l0,0c0-4.1,3.3-7.6,7.6-7.6h14.9c4.1,0,7.6,3.3,7.6,7.6l0,0
			C179.6,376.1,176.3,379.4,172.2,379.4z"/>
		<path class="st3" d="M171.3,377.8h-14.9c-4.1,0-7.6-3.3-7.6-7.6l0,0c0-4.1,3.3-7.6,7.6-7.6h14.9c4.1,0,7.6,3.3,7.6,7.6l0,0
			C178.9,374.4,175.5,377.8,171.3,377.8z"/>
		<circle class="st5" cx="219.3" cy="350.9" r="16.1"/>
		<circle class="st5" cx="270.2" cy="350.9" r="16.1"/>
		<circle class="st3" cx="269.4" cy="350" r="16.1"/>
		<circle class="st3" cx="218.2" cy="350.9" r="16.1"/>
		<circle class="st6" cx="247.4" cy="504.1" r="34.4"/>
		<circle class="st7" cx="245.8" cy="502.4" r="34.4"/>
		<circle class="st8" cx="246.5" cy="502.4" r="30.3"/>
		<circle class="st9" cx="240.5" cy="495.3" r="21.6"/>
		<circle class="st10" cx="233.8" cy="486" r="6.8"/>
		<polygon class="st3" points="59.5,296.9 59.5,327.3 29.4,327.3 29.4,360.2 59.5,360.2 59.5,389.6 93.2,389.6 93.2,360.2 
			121.1,360.2 121.1,327.3 92.7,326.9 93.2,296.9 		"/>
		<path class="st0" d="M308.4,272.6l109.9-3.6c0,0,1.7,28.1,42.5,27.6c40.8-0.5,40.6-32.6,40.6-32.6L611.9,252l0.1,177.6
			l-303.4,18.2L308.4,272.6z"/>
		<path class="st11" d="M0.9,263.7h109.9c0,0,2.2,28.9,43.1,28.9s40.1-28.9,40.1-28.9h110.4v175.2H0L0.9,263.7z"/>
		<path class="st12" d="M303.3,262.8l109.9-3.6c0,0,1.7,28.1,42.5,27.6c40.8-0.5,40.6-32.6,40.6-32.6l110.4-11.9l0.1,177.6
			l-303.4,18.2L303.3,262.8z"/>
		<polygon class="st11" points="313.6,405.4 293.3,407 293.3,299.3 313.6,297.6 		"/>
		<polyline class="st12" points="580.4,393.3 339,407 339,379.4 		"/>
		<polygon class="st12" points="578.7,393.2 502.9,397.4 501.2,321.5 578.7,314.8 		"/>
		<polygon class="st4" points="341.8,406.9 339.1,406.9 339.1,379.9 341.8,380.7 		"/>
		<polygon class="st13" points="506.8,397.7 501.2,397.7 501.2,321.5 506.8,320.6 		"/>
	</g>
</g>
</svg>
